<svg xmlns="http://www.w3.org/2000/svg" width="15.787" height="15.787" viewBox="0 0 15.787 15.787">
  <g id="Icon_material-mode-edit" data-name="Icon material-mode-edit" transform="translate(-4.5 -4.496)" fill="none">
    <path d="M4.5,16.995v3.288H7.788l9.7-9.7L14.2,7.3ZM20.03,8.041a.873.873,0,0,0,0-1.236L17.978,4.753a.873.873,0,0,0-1.236,0l-1.6,1.6,3.288,3.288Z" stroke="none"/>
    <path d="M 7.374234676361084 19.28301620483398 L 16.07298469543457 10.5842752456665 L 14.19874477386475 8.710036277770996 L 5.500004291534424 17.40878486633301 L 5.500004291534424 19.28301620483398 L 7.374234676361084 19.28301620483398 M 18.42550849914551 8.23175048828125 L 19.23428344726562 7.422975540161133 L 17.36005020141602 5.548740863800049 L 16.5512752532959 6.357515811920166 L 18.42550849914551 8.23175048828125 M 7.788454532623291 20.28301620483398 L 4.500004291534424 20.28301620483398 L 4.500004291534424 16.99456596374512 L 14.19874477386475 7.295815467834473 L 17.48720359802246 10.5842752456665 L 7.788454532623291 20.28301620483398 Z M 18.42550468444824 9.645965576171875 L 15.13705444335938 6.357515811920166 L 16.74182510375977 4.752745628356934 C 17.08381271362305 4.41075611114502 17.63627433776855 4.41075611114502 17.97827339172363 4.752745628356934 L 20.0302734375 6.804745674133301 C 20.37226486206055 7.146745681762695 20.37226486206055 7.699205875396729 20.0302734375 8.041205406188965 L 18.42550468444824 9.645965576171875 Z" stroke="none" fill="#0c3249"/>
  </g>
</svg>
