<svg xmlns="http://www.w3.org/2000/svg" xmlns:xlink="http://www.w3.org/1999/xlink" width="256" height="226" viewBox="0 0 256 226">
  <defs>
    <clipPath id="clip-path">
      <rect id="Rectangle_2124" data-name="Rectangle 2124" width="256" height="226" transform="translate(0 534)" fill="#fff" stroke="#707070" stroke-width="1"/>
    </clipPath>
  </defs>
  <g id="Mask_Group_13" data-name="Mask Group 13" transform="translate(0 -534)" clip-path="url(#clip-path)">
    <g id="Group_81" data-name="Group 81" transform="translate(-467.484 -89.854)">
      <g id="Group_8" data-name="Group 8" transform="translate(497.512 738.65)">
        <g id="Group_7" data-name="Group 7" transform="translate(0 0)">
          <path id="Path_5" data-name="Path 5" d="M1327.814,1820.8l-16.244,18.974c-25.223-7.406-64.751-34.7-47.046-71.279,17.672-36.512,56.309-17.61,76.75-40.958l78.079,4.206s-34.254,81.4-80.15,94.415Z" transform="translate(-1260.103 -1727.537)" fill="#804959"/>
        </g>
      </g>
      <g id="Group_9" data-name="Group 9" transform="translate(502.584 739.567)" opacity="0.3">
        <path id="Path_6" data-name="Path 6" d="M1463.123,1739.651s-34.256,81.407-80.15,94.413l-11.388-5.354-16.243,18.972c-15.66-4.6-36.826-16.855-46.4-34.243a79.493,79.493,0,0,0,7.421,3.52l18.111-17.2,9.98,2.861c34.5-4.691,67.394-41.165,67.394-41.165s-19.035-13.876-16.564-17.589a37.037,37.037,0,0,1,6.785-7.505Z" transform="translate(-1308.945 -1736.362)" fill="#650000"/>
      </g>
      <g id="Group_10" data-name="Group 10" transform="translate(495.616 736.721)">
        <path id="Path_7" data-name="Path 7" d="M1295.837,1825.274l-1.168-.343c-17.789-5.222-40.8-19.57-49.3-38.729-5.055-11.407-4.69-23.242,1.085-35.176,10.409-21.506,27.67-24.539,44.362-27.472,12.455-2.188,24.217-4.255,32.667-13.905l.6-.689,81.665,4.4-1.038,2.466a306.588,306.588,0,0,1-23.021,42.625c-19.234,29.559-38.866,47.347-58.351,52.87l-.678.192-10.727-5.046Zm29.864-112.458c-9.274,10.061-21.956,12.288-34.23,14.445-16.484,2.9-32.055,5.632-41.625,25.4-5.272,10.892-5.619,21.662-1.032,32.01,7.825,17.655,28.946,31.039,45.753,36.291l16.378-19.13,12.042,5.666c22.853-6.844,42.779-31.487,55.52-51.058a308.952,308.952,0,0,0,21.654-39.619Z" transform="translate(-1241.836 -1708.959)" fill="#650000"/>
      </g>
      <g id="Group_12" data-name="Group 12" transform="translate(411.045 690.445)">
        <g id="Group_11" data-name="Group 11" transform="translate(0)">
          <path id="Path_8" data-name="Path 8" d="M531.4,1358.433s-18.926,9.535-33.771-6.374c-14.515-15.554-1.919-42.491-6.2-59.1-5.791-22.49-26.521-38.265-50.334-24.625-24.158,13.838-12.227,44.708,2.792,49.238,8.847,2.669,14.787-1.083,14.721-10.077s-12.2-11.4-10.254-19.021,16.131-11.244,22.878,1.682,1.435,39.793,4.8,55.25c3.143,14.451,15.5,26.187,29.818,29.564,17.068,4.027,28.909-1.092,28.909-1.092Z" transform="translate(-427.305 -1263.257)" fill="#804959"/>
        </g>
      </g>
      <g id="Group_13" data-name="Group 13" transform="translate(459.869 773.037)" opacity="0.3">
        <path id="Path_9" data-name="Path 9" d="M897.545,2058.727c3.3,14.245,15.553,25.774,29.719,29.117,17.067,4.027,28.908-1.092,28.908-1.092l-1.705-7.836a61.917,61.917,0,0,1-28.2.6C913.928,2077.021,903.034,2069.156,897.545,2058.727Z" transform="translate(-897.545 -2058.727)" fill="#650000"/>
      </g>
      <g id="Group_14" data-name="Group 14" transform="translate(427.582 700.944)" opacity="0.3">
        <path id="Path_10" data-name="Path 10" d="M613.963,1380.764c.145.283.288.571.424.865a27.377,27.377,0,0,0-2.78-8.892c-7.081-12.854-22.531-8.955-24.775-1.269-1.062,3.628,1.3,6.032,4.084,8.51a6.689,6.689,0,0,1,.167-.893C593.025,1371.464,607.216,1367.838,613.963,1380.764Z" transform="translate(-586.572 -1364.368)" fill="#650000"/>
      </g>
      <g id="Group_15" data-name="Group 15" transform="translate(415.016 726.762)" opacity="0.3">
        <path id="Path_11" data-name="Path 11" d="M465.548,1619.6c3.093,5.622,7.687,9.938,12.611,11.426,8.848,2.667,14.786-1.083,14.72-10.08-.023-3.35-1.721-5.783-3.742-7.916a1.534,1.534,0,0,1,0,.188c-.09,9.029-6.6,12.9-16.142,10.388A19.451,19.451,0,0,1,465.548,1619.6Z" transform="translate(-465.548 -1613.031)" fill="#650000"/>
      </g>
      <g id="Group_16" data-name="Group 16" transform="translate(409.162 688.552)">
        <path id="Path_12" data-name="Path 12" d="M502.688,1362.06a58.923,58.923,0,0,1-13.534-1.6c-15.438-3.643-27.986-16.1-31.226-31-1.451-6.668-1.342-15.052-1.226-23.928.152-11.675.309-23.747-3.4-30.852-2.74-5.25-7.279-8.044-12.139-7.48-3.563.414-6.543,2.632-7.247,5.393-.681,2.671.981,4.423,3.976,7.29,2.806,2.685,6.3,6.026,6.336,11.252.045,6.062-2.386,9.16-4.433,10.693-3.136,2.347-7.532,2.763-12.713,1.2-8.793-2.653-16.411-13.3-17.719-24.768-1.332-11.68,3.965-21.851,14.536-27.9,10.352-5.93,20.867-6.937,30.4-2.911,10.747,4.535,19.228,15.264,22.688,28.7,1.7,6.618.9,14.478.038,22.8-1.338,13-2.722,26.452,5.712,35.491,13.675,14.653,30.828,6.337,31.552,5.975l2.165-1.081,4.2,19.316-1.422.614C518.88,1359.416,512.605,1362.06,502.688,1362.06Zm-60.251-98.7c5.8,0,11.022,3.483,14.2,9.578,4.147,7.946,3.984,20.5,3.827,32.643-.112,8.655-.219,16.83,1.141,23.079,2.938,13.51,14.355,24.816,28.411,28.131a50.417,50.417,0,0,0,26.285-.477l-2.527-11.619a35.142,35.142,0,0,1-9.846,2.054A29.456,29.456,0,0,1,479.99,1337c-9.6-10.289-8.062-25.247-6.7-38.444.821-7.976,1.6-15.51.061-21.475-3.168-12.306-10.834-22.089-20.506-26.17-8.414-3.551-17.776-2.615-27.071,2.709-12.6,7.217-13.344,18.268-12.666,24.212,1.13,9.9,7.747,19.383,15.066,21.59,3.988,1.2,7.229.992,9.37-.61,1.94-1.452,2.951-4.1,2.924-7.652-.027-3.634-2.527-6.027-5.174-8.561-2.943-2.816-6.278-6.008-5.021-10.939,1.1-4.307,5.3-7.6,10.46-8.2A14.854,14.854,0,0,1,442.437,1263.361Z" transform="translate(-409.162 -1245.022)" fill="#650000"/>
      </g>
      <g id="Group_17" data-name="Group 17" transform="translate(453.957 664.578)">
        <path id="Path_13" data-name="Path 13" d="M1048.573,1216.9c-14.918,13.214-56.966,30.748-102.628,31.227-40.239.418-74.825-18.782-92.585-38.5-16.316-18.1-18.449-36.645,2.235-40.85,1.256-.1,4.453-.021,9.137-.021a295.263,295.263,0,0,0,37.526-2.171,217.4,217.4,0,0,0,40.056-8.735,154.92,154.92,0,0,0,33.149-15.081,122.134,122.134,0,0,0,20.645-15.843q3.174-3.038,6.068-6.03c4.7-4.846,8.876-9.581,12.637-14.162,22.765-27.714,30.355-49.765,47.1-56.936a.045.045,0,0,1,.021-.009c.517-.222,1.043-.427,1.581-.62q.929-.34,1.9-.615c0-.021-12.03-12.825-14.406-18.308-2.038-4.7,3.722-12.825,12.389-15.043,20.025-5.128,37.637,9.047,33.577,16.393a154.24,154.24,0,0,0-8.338,18.064s.415.573,1.115,1.662C1097.761,1063.752,1131.543,1143.432,1048.573,1216.9Z" transform="translate(-840.601 -1014.112)" fill="#fce15e"/>
      </g>
      <g id="Group_19" data-name="Group 19" transform="translate(453.961 722.41)">
        <g id="Group_18" data-name="Group 18" transform="translate(0 0)" opacity="0.3">
          <path id="Path_14" data-name="Path 14" d="M842.1,1691.017a63.363,63.363,0,0,0,8.858,12.309c17.761,19.718,52.346,38.918,92.586,38.5,45.662-.479,87.709-18.013,102.628-31.227,58.826-52.092,58.962-107.3,51.2-139.452,0-.008,0-.016,0-.023,1.892,32.2-7.78,75.583-54.544,117-14.923,13.213-60.492,50.32-129.507,32.627-5.072-1.3-10.653-8.894-.37-12.6,11.469-4.133,27.684-8.131,27.684-8.131s-54.271,8.789-93.021-19.175c-2.066-1.491-3.256-3.791-4.641-5.676-3.027,4.426-3.023,10.338-.5,16.878Q842.274,1691.528,842.1,1691.017Z" transform="translate(-840.637 -1571.124)" fill="#650000"/>
        </g>
      </g>
      <g id="Group_20" data-name="Group 20" transform="translate(663.947 664.576)">
        <path id="Path_15" data-name="Path 15" d="M2909.48,1031.585a153.262,153.262,0,0,0-8.337,18.062s.414.573,1.112,1.663c-12.43-6.132-27.16-1.734-27.815-1.533a28.622,28.622,0,0,1,3.48-1.235c-.006-.021-12.029-12.827-14.408-18.309-2.037-4.7,3.725-12.823,12.389-15.044C2895.926,1010.061,2913.538,1024.238,2909.48,1031.585Z" transform="translate(-2863.102 -1014.096)" fill="#378381"/>
      </g>
      <g id="Group_21" data-name="Group 21" transform="translate(663.949 664.578)" opacity="0.4">
        <path id="Path_16" data-name="Path 16" d="M2908.96,1025.541c-6.166-5.069-17.171-8.791-29.018-5.757-8.666,2.222-14.427,10.346-12.389,15.043,1.228,2.829,5.019,7.6,8.4,11.568-3.517-3.893-10.658-12.055-12.432-16.145-2.038-4.7,3.723-12.825,12.389-15.042C2891.166,1011.3,2905.021,1018.6,2908.96,1025.541Z" transform="translate(-2863.113 -1014.114)" fill="#fff"/>
      </g>
      <g id="Group_22" data-name="Group 22" transform="translate(676.847 696.923)" opacity="0.35">
        <path id="Path_17" data-name="Path 17" d="M2989.262,1327.74c-.026.008-.052.013-.077.022-.586-.663-1.206-1.377-1.842-2.12C2988.505,1326.928,2989.258,1327.736,2989.262,1327.74Z" transform="translate(-2987.343 -1325.642)" fill="#fff"/>
      </g>
      <g id="Group_23" data-name="Group 23" transform="translate(452.241 662.872)">
        <path id="Path_18" data-name="Path 18" d="M929.855,1235.123c-56.537,0-102.981-38.372-105.653-63.608-1.059-9.994,4.71-16.789,16.241-19.133l.2-.028c.925-.077,2.631-.066,5.212-.047,60,.439,105.173-13.477,134.263-41.338,18.783-17.991,29.942-34.7,38.908-48.134,9.724-14.565,16.75-25.088,28.1-29.621a.338.338,0,0,0,.216-.242.265.265,0,0,0-.067-.252c-4.813-5.331-10.914-12.524-12.643-16.515a8.817,8.817,0,0,1,.619-7.366c2.281-4.656,7.35-8.585,12.913-10.011,14.377-3.684,28.139,2.093,33.791,9.4,2.575,3.33,3.2,6.785,1.708,9.48a151.113,151.113,0,0,0-7.854,16.855h0a.3.3,0,0,0,.03.281c3.868,5.794,14.891,29.265,14.808,60.053a126.035,126.035,0,0,1-11.5,52.3c-9.274,20.333-24.17,39.273-44.27,56.295-15.165,12.842-57.368,31.144-103.715,31.627C930.724,1235.12,930.286,1235.123,929.855,1235.123Zm-88.834-79.369c-9.636,1.989-14.276,7.313-13.419,15.4,1.242,11.736,13.579,27.03,31.428,38.962a128.705,128.705,0,0,0,70.828,21.587c.422,0,.842,0,1.263-.007,45.5-.474,86.767-18.306,101.541-30.817,36.1-30.567,54.454-66.228,54.562-105.994.083-30.451-11.206-53.61-14.233-58.146a3.726,3.726,0,0,1-.369-3.426h0a154.572,154.572,0,0,1,8.045-17.261c.8-1.445.281-3.535-1.42-5.735-4.269-5.52-16.474-11.707-30.238-8.179a16.728,16.728,0,0,0-10.692,8.2,5.543,5.543,0,0,0-.552,4.5c1.188,2.741,5.577,8.421,12.044,15.583a3.7,3.7,0,0,1,.86,3.316,3.769,3.769,0,0,1-2.278,2.643c-10.363,4.139-17.141,14.292-26.522,28.344-9.059,13.569-20.333,30.455-39.387,48.7-19.09,18.283-45.186,30.842-77.565,37.328-25.949,5.2-49.168,5.031-59.087,4.959C843.524,1155.709,841.834,1155.7,841.021,1155.753Z" transform="translate(-824.079 -997.685)" fill="#650000"/>
      </g>
      <g id="Group_24" data-name="Group 24" transform="translate(453.957 819.192)">
        <path id="Path_19" data-name="Path 19" d="M864.732,2503.294c3.95,21.05-5.8,34.9-11.37,40.867-16.318-18.1-18.449-36.642,2.234-40.848C856.853,2503.211,860.047,2503.291,864.732,2503.294Z" transform="translate(-840.604 -2503.262)" fill="#650000"/>
      </g>
      <g id="Group_25" data-name="Group 25" transform="translate(469.947 829.064)">
        <path id="Path_20" data-name="Path 20" d="M1135.576,2600.247a140.121,140.121,0,0,1-15.434,9.186c-2.642,1.43-5.406,2.6-8.142,3.843-.68.322-1.381.59-2.081.861l-2.1.82c-1.4.541-2.79,1.123-4.225,1.572l-4.277,1.438c-1.435.448-2.889.834-4.334,1.253l-2.173.616-2.2.521c-1.468.335-2.926.72-4.4,1.014a154.825,154.825,0,0,1-17.884,2.581,167.162,167.162,0,0,1-36.122-1.058,176.68,176.68,0,0,1-17.812-3.386q-4.415-1.062-8.775-2.4-2.184-.656-4.352-1.4c-.723-.243-1.447-.5-2.172-.765s-1.425-.527-2.227-.854a3.634,3.634,0,0,1,2.744-6.729l.108.046.06.026c.563.254,1.255.545,1.9.809s1.326.534,2,.788q2.016.773,4.075,1.478c2.741.942,5.515,1.816,8.319,2.6a170.128,170.128,0,0,0,17.045,3.889,161.791,161.791,0,0,0,34.9,2.294,150.491,150.491,0,0,0,17.437-1.872c1.445-.233,2.872-.555,4.31-.829l2.155-.427,2.132-.522c1.42-.357,2.85-.682,4.263-1.066l4.215-1.249c1.416-.385,2.787-.9,4.174-1.383l2.077-.726c.694-.24,1.389-.477,2.062-.768,2.714-1.114,5.463-2.16,8.1-3.465a138.087,138.087,0,0,0,15.477-8.465l.035-.021a1.037,1.037,0,0,1,1.117,1.748Z" transform="translate(-994.607 -2598.346)" fill="#650000"/>
      </g>
      <g id="Group_26" data-name="Group 26" transform="translate(645.569 707.394)">
        <path id="Path_21" data-name="Path 21" d="M2729.231,1427.442c-.686,4.058-1.62,8.01-2.625,11.97-.535,1.966-1.05,3.941-1.622,5.9l-.882,2.93c-.3.976-.589,1.953-.922,2.917-.654,1.931-1.267,3.879-1.958,5.8l-2.1,5.753-2.271,5.689-.571,1.422-.622,1.4-1.247,2.8-1.247,2.8c-.431.927-.892,1.839-1.337,2.76-.9,1.833-1.779,3.682-2.708,5.5-1.956,3.592-3.795,7.253-5.946,10.741a123.215,123.215,0,0,1-14.222,20,1.628,1.628,0,0,1-2.6-1.95l.035-.054c4.374-6.776,9.073-13.257,13.224-20.144,2.189-3.371,4.073-6.923,6.079-10.408.953-1.769,1.855-3.566,2.786-5.35.458-.9.933-1.782,1.377-2.684l1.29-2.729,1.292-2.728.646-1.364.613-1.38,2.439-5.527,2.272-5.6c.749-1.871,1.422-3.771,2.138-5.656s1.319-3.809,2.006-5.706c.658-1.906,1.258-3.832,1.88-5.751,1.172-3.853,2.289-7.752,3.2-11.648l.006-.025a.813.813,0,0,1,1.593.321Z" transform="translate(-2686.095 -1426.494)" fill="#650000"/>
      </g>
      <g id="Group_29" data-name="Group 29" transform="translate(494.493 774.031)" opacity="0.3">
        <g id="Group_27" data-name="Group 27" transform="translate(0 35.68)">
          <path id="Path_22" data-name="Path 22" d="M1308.991,2447.6c.066,4.239-9.765,2.471-9.893,2.65-.077.112,5.792,6.725,2.363,8.313s-10.82-2.818-10.948-2.716c-.2.164,3.7,7.161-.441,9.436-3.265,1.8-9.621-3.844-12.22-9.358-15.829-5.054-36.085-16.91-46.834-33.5a260.7,260.7,0,0,0,48.044-10.477,40.67,40.67,0,0,0,14.429,21.334c2.306-1.129,4.659-1.841,6.187-1.158,4.336,1.937-2.629,8.564-2.629,8.667S1308.909,2442.692,1308.991,2447.6Z" transform="translate(-1231.018 -2411.943)" fill="#650000"/>
        </g>
        <g id="Group_28" data-name="Group 28" transform="translate(85.78)">
          <path id="Path_23" data-name="Path 23" d="M2123.8,2083.673c-.018.123,7.487,3.22,5.294,5.906s-10.066,2.027-10.131,2.165c-.1.211,5.938,4.418,3.435,7.966-1.75,2.481-7.853,1.1-12.257-1.68-7.854,2.015-34.036,7.313-52.938-5.651a134.545,134.545,0,0,0,22.732-17.443q3.494-3.346,6.683-6.64c6.747,3.143,15.058,6.117,23.5,6.926,1.75-2.913,4.456-6.667,6.87-6.747,4.363-.146,1.28,8.126,1.322,8.211s10.555-3.2,12.588.819C2132.661,2080.981,2123.838,2083.471,2123.8,2083.673Z" transform="translate(-2057.202 -2068.296)" fill="#650000"/>
        </g>
      </g>
      <g id="Group_31" data-name="Group 31" transform="translate(497.512 738.65)">
        <g id="Group_30" data-name="Group 30" transform="translate(0 0)">
          <path id="Path_24" data-name="Path 24" d="M1341.273,1727.537c-20.441,23.348-59.078,4.446-76.75,40.958-17.7,36.579,21.823,63.874,47.046,71.279l16.244-18.974a37.082,37.082,0,0,1-18.043-28.913" transform="translate(-1260.103 -1727.537)" fill="#804959"/>
        </g>
      </g>
      <g id="Group_32" data-name="Group 32" transform="translate(497.53 798.852)" opacity="0.3">
        <path id="Path_25" data-name="Path 25" d="M1327.965,2340.428l-16.244,18.973c-20.568-6.037-50.646-25.3-51.451-52.034,4.325,14.5,17.018,26.213,30.344,33.983a24.849,24.849,0,0,0,31.412-5.274h0A30.16,30.16,0,0,0,1327.965,2340.428Z" transform="translate(-1260.27 -2307.367)" fill="#650000"/>
      </g>
      <g id="Group_33" data-name="Group 33" transform="translate(495.616 736.768)">
        <path id="Path_26" data-name="Path 26" d="M1295.837,1825.675l-1.168-.343c-17.789-5.222-40.8-19.57-49.3-38.729-5.055-11.407-4.69-23.242,1.085-35.176,10.409-21.506,27.67-24.539,44.362-27.471,12.455-2.188,24.217-4.255,32.667-13.906a1.882,1.882,0,1,1,2.832,2.48c-9.323,10.648-22.3,12.928-34.848,15.133-16.484,2.9-32.055,5.632-41.625,25.4-5.272,10.891-5.619,21.662-1.032,32.01,7.825,17.654,28.946,31.04,45.753,36.292l14-16.352a39.117,39.117,0,0,1-17.041-29.2,1.882,1.882,0,1,1,3.747-.363,35.359,35.359,0,0,0,17.023,27.417l2.132,1.084Z" transform="translate(-1241.836 -1709.407)" fill="#650000"/>
      </g>
      <g id="Group_34" data-name="Group 34" transform="translate(623.602 695.052)" opacity="0.3">
        <path id="Path_27" data-name="Path 27" d="M2530.853,1317.639c-.423,8.292-4.244,13.082-10.418,15.745a27.454,27.454,0,0,1-9.75,2.028,15.016,15.016,0,0,1,1.666,3.944,18.307,18.307,0,0,1,.5,7.27c-1.172,7.486-6.982,12.324-15.477,16.121-2.9,1.422-6.993,2.744-12.07,4.673-3.6,1.365-7.247,2.56-10.78,3.586,25.066-30.516,33.424-54.8,51.86-62.693a.068.068,0,0,1,.023-.01q.854-.367,1.741-.682A17.42,17.42,0,0,1,2530.853,1317.639Z" transform="translate(-2474.522 -1307.621)" fill="#650000"/>
      </g>
      <g id="Group_35" data-name="Group 35" transform="translate(647.384 683.683)">
        <path id="Path_28" data-name="Path 28" d="M2703.578,1209.853s.688-10.479,11.754-11.64c10.629-1.115,16.49,8.7,16.087,16.595-.423,8.29-4.242,13.079-10.416,15.743a29.6,29.6,0,0,1-13.557,1.926" transform="translate(-2703.578 -1198.126)" fill="#ffca9f"/>
      </g>
      <g id="Group_36" data-name="Group 36" transform="translate(647.858 693.548)">
        <path id="Path_29" data-name="Path 29" d="M2708.137,1299.553a7.207,7.207,0,0,1,6.813-6.363c6.128-.643,9.471,4.67,9.212,8.958a9.111,9.111,0,0,1-6.056,8.587,18.1,18.1,0,0,1-7.817,1.093" transform="translate(-2708.137 -1293.137)" fill="#f28475"/>
      </g>
      <g id="Group_38" data-name="Group 38" transform="translate(647.985 700.684)" opacity="0.3">
        <g id="Group_37" data-name="Group 37" transform="translate(0)">
          <path id="Path_30" data-name="Path 30" d="M2719.983,1368.446a6.767,6.767,0,0,1-2.2,4.4,24.833,24.833,0,0,1-6.589.665l-1.831-9.2a5.027,5.027,0,0,1,1.161-2.325c.165-.024.331-.044.5-.062C2717.155,1361.29,2720.352,1365.209,2719.983,1368.446Z" transform="translate(-2709.362 -1361.862)" fill="#f3dfcc"/>
        </g>
      </g>
      <g id="Group_39" data-name="Group 39" transform="translate(646.3 691.989)">
        <path id="Path_31" data-name="Path 31" d="M2698.26,1299.987c-.923,0-1.519-.061-1.585-.067a1.558,1.558,0,0,1,.334-3.1,16.655,16.655,0,0,0,7.059-.985c3.3-1.36,4.874-3.593,5.094-7.241a7.475,7.475,0,0,0-2.225-5.621,6.377,6.377,0,0,0-5.27-1.693c-5.03.528-5.408,4.752-5.422,4.932a1.558,1.558,0,0,1-3.106-.235,8.739,8.739,0,0,1,8.2-7.793,9.4,9.4,0,0,1,7.748,2.54,10.57,10.57,0,0,1,3.18,8.06,10.7,10.7,0,0,1-7.018,9.933A18.9,18.9,0,0,1,2698.26,1299.987Z" transform="translate(-2693.135 -1278.121)" fill="#650000"/>
      </g>
      <g id="Group_40" data-name="Group 40" transform="translate(645.502 681.8)">
        <path id="Path_32" data-name="Path 32" d="M2693.878,1218.236a26.313,26.313,0,0,1-2.9-.141,1.882,1.882,0,1,1,.45-3.737,27.946,27.946,0,0,0,12.587-1.786c5.973-2.579,8.923-7.062,9.281-14.112a15.4,15.4,0,0,0-4.539-11.515,11.6,11.6,0,0,0-9.472-3.111,10.888,10.888,0,0,0-10.072,9.9,1.882,1.882,0,0,1-3.756-.254,14.564,14.564,0,0,1,13.436-13.388,15.252,15.252,0,0,1,12.453,4.123,19.044,19.044,0,0,1,5.711,14.439c-.436,8.525-4.213,14.208-11.55,17.376A30.082,30.082,0,0,1,2693.878,1218.236Z" transform="translate(-2685.449 -1179.992)" fill="#650000"/>
      </g>
      <g id="Group_41" data-name="Group 41" transform="translate(511.794 697.659)">
        <path id="Path_33" data-name="Path 33" d="M1424.4,1341.793s-2.827-10.113-13.9-8.974c-10.632,1.094-14.348,11.909-12.331,19.548,2.119,8.026,6.842,11.927,13.431,13.265a29.609,29.609,0,0,0,13.664-.9" transform="translate(-1397.649 -1332.73)" fill="#ffca9f"/>
      </g>
      <g id="Group_42" data-name="Group 42" transform="translate(511.794 712.576)" opacity="0.3">
        <path id="Path_34" data-name="Path 34" d="M1398.184,1481.12c2.119,8.028,6.842,11.929,13.43,13.268a29.625,29.625,0,0,0,13.665-.906l-.186-4.911a31.576,31.576,0,0,1-13.278.521c-6.692-1.36-11.624-5.132-14.147-12.692A16.529,16.529,0,0,0,1398.184,1481.12Z" transform="translate(-1397.658 -1476.4)" fill="#650000"/>
      </g>
      <g id="Group_43" data-name="Group 43" transform="translate(650.424 695.639)" opacity="0.3">
        <path id="Path_35" data-name="Path 35" d="M2757.658,1318c-.423,8.292-4.242,13.082-10.414,15.746a29.629,29.629,0,0,1-13.558,1.924l-.829-4.845a31.569,31.569,0,0,0,13.1-2.22c6.269-2.708,10.32-7.413,11.234-15.33A16.533,16.533,0,0,1,2757.658,1318Z" transform="translate(-2732.857 -1313.274)" fill="#650000"/>
      </g>
      <g id="Group_44" data-name="Group 44" transform="translate(523.584 706.395)">
        <path id="Path_36" data-name="Path 36" d="M1526.642,1421.756a7.207,7.207,0,0,0-7.975-4.826c-6.13.631-8.309,6.519-7.172,10.661a9.109,9.109,0,0,0,7.692,7.158,18.11,18.11,0,0,0,7.875-.538" transform="translate(-1511.206 -1416.875)" fill="#f28475"/>
      </g>
      <g id="Group_45" data-name="Group 45" transform="translate(523.584 706.394)">
        <path id="Path_37" data-name="Path 37" d="M1511.5,1427.576a9.109,9.109,0,0,0,7.69,7.158q.652.119,1.293.173a18.729,18.729,0,0,0,6.584-.71l-.419-12.457a7.4,7.4,0,0,0-1.689-2.758,7.244,7.244,0,0,0-6.287-2.068C1512.541,1417.548,1510.362,1423.433,1511.5,1427.576Z" transform="translate(-1511.209 -1416.859)" fill="#f28475"/>
      </g>
      <g id="Group_47" data-name="Group 47" transform="translate(531.355 712.209)" opacity="0.3">
        <g id="Group_46" data-name="Group 46" transform="translate(0 0)">
          <path id="Path_38" data-name="Path 38" d="M1586.288,1481.131a6.773,6.773,0,0,0,3.059,3.857,24.819,24.819,0,0,0,6.585-.7l-.1-9.377a5.017,5.017,0,0,0-1.615-2.036c-.166.01-.332.024-.5.043C1587.584,1473.546,1585.261,1478.039,1586.288,1481.131Z" transform="translate(-1586.053 -1472.871)" fill="#f3dfcc"/>
        </g>
      </g>
      <g id="Group_48" data-name="Group 48" transform="translate(522.027 704.839)">
        <path id="Path_39" data-name="Path 39" d="M1508.36,1423.1a15.9,15.9,0,0,1-2.9-.254,10.7,10.7,0,0,1-8.91-8.278,10.57,10.57,0,0,1,1.455-8.541,9.414,9.414,0,0,1,7.061-4.08,8.739,8.739,0,0,1,9.631,5.94,1.557,1.557,0,0,1-2.988.879c-.137-.442-1.46-4.221-6.323-3.721a6.381,6.381,0,0,0-4.81,2.742,7.475,7.475,0,0,0-1.02,5.958c.965,3.524,2.962,5.387,6.474,6.039a16.493,16.493,0,0,0,7.11-.487,1.557,1.557,0,0,1,.963,2.962A20.387,20.387,0,0,1,1508.36,1423.1Z" transform="translate(-1496.209 -1401.884)" fill="#650000"/>
      </g>
      <g id="Group_49" data-name="Group 49" transform="translate(509.905 695.778)">
        <path id="Path_40" data-name="Path 40" d="M1400.024,1351.736a25.657,25.657,0,0,1-5.1-.489c-7.831-1.59-12.7-6.376-14.875-14.629a19.05,19.05,0,0,1,2.619-15.305,15.258,15.258,0,0,1,11.339-6.6,14.553,14.553,0,0,1,15.9,10.338,1.882,1.882,0,0,1-3.624,1.02,10.883,10.883,0,0,0-11.893-7.614,11.6,11.6,0,0,0-8.629,4.992,15.4,15.4,0,0,0-2.075,12.2c1.8,6.824,5.61,10.606,11.985,11.9a27.705,27.705,0,0,0,12.684-.84,1.882,1.882,0,1,1,1.21,3.565A32.584,32.584,0,0,1,1400.024,1351.736Z" transform="translate(-1379.457 -1314.619)" fill="#650000"/>
      </g>
      <g id="Group_50" data-name="Group 50" transform="translate(530.573 625.965)">
        <path id="Path_41" data-name="Path 41" d="M1579.141,717.548c1.411,8.911,4.843,18.176,10.04,24.111-4.072,1.193-5.689,5.414-5.847,9.639a18.146,18.146,0,0,0,1.028,6.863c2.521,6.658,8.573,10.187,16.839,12.222.531.128,1.069.253,1.619.373a18.474,18.474,0,0,1-4.167-2.026c-4.6-2.967-8.042-7.763-8.72-11.728-.022-.149-.044-.3-.062-.443-.021-.168-.038-.337-.046-.5-.014-.136-.021-.273-.025-.4a10.32,10.32,0,0,1,2.763-7.542,14.932,14.932,0,0,1,5.137-3.625s-14.2-21.117-4.262-41.663c.082-.166.159-.335.244-.5,5.616-11.163,14.028-16.118,22.1-17.082a.134.134,0,0,1,.051-.006c10.445-1.227,20.31,4.232,22.788,11.584a11.256,11.256,0,0,1,.54,2.452l.269-.028c-.869-8.361,7.955-17.11,19.22-18.458,8.276-.991,17.875,2.01,25.916,12.091.116.142.23.291.34.437,13.954,18.062,4.4,41.649,4.4,41.649a.4.4,0,0,1,.047.008,15.033,15.033,0,0,1,5.172,2.1,10.435,10.435,0,0,1,4.761,6.947,10.318,10.318,0,0,1,.162,1.147,12.943,12.943,0,0,1-.668,4.954v0a21.966,21.966,0,0,1-4.37,7.636,19.2,19.2,0,0,1-4.715,3.962c8.5-3.8,14.308-8.634,15.477-16.121a18.3,18.3,0,0,0-.5-7.269c-1.075-3.969-3.5-7.569-7.613-7.889,3.866-6.876,5.315-16.648,4.867-25.66-1.419-28.324-26.267-49.47-55.023-51.359,0,0-.006,0-.007,0-2.613-.538-6.838-1.45-12.491-2.783a29.9,29.9,0,0,1-13.78-8.062,1.207,1.207,0,0,0-1.938.307,47.98,47.98,0,0,0-2.852,9.531,1.21,1.21,0,0,1-1.669.872c-1.295-.567-3.416-2.71-5.332-3.895a1.207,1.207,0,0,0-1.779.644,29.282,29.282,0,0,0-.952,13.075C1587.353,674.684,1575.636,695.43,1579.141,717.548Z" transform="translate(-1578.523 -642.22)" fill="#804959"/>
      </g>
      <g id="Group_51" data-name="Group 51" transform="translate(528.694 644.975)">
        <path id="Path_42" data-name="Path 42" d="M1586.6,936.721a1.882,1.882,0,0,1-.4-.043c-10.854-2.35-17.151-6.724-19.819-13.767-1.381-3.642-1.857-9.591.36-14.047a9.65,9.65,0,0,1,3.261-3.8c-4.286-5.775-7.5-14.048-8.94-23.139a52.35,52.35,0,0,1,5.321-32.328,61.419,61.419,0,0,1,22.513-24,1.882,1.882,0,0,1,1.978,3.2c-19.047,11.753-29.29,32.375-26.094,52.539,1.478,9.331,5.065,17.99,9.6,23.165l1.942,2.218-2.829.829a5.448,5.448,0,0,0-3.378,2.992c-1.62,3.255-1.317,8.116-.21,11.036,2.2,5.817,7.476,9.34,17.1,11.422a1.882,1.882,0,0,1-.4,3.722Z" transform="translate(-1560.423 -825.313)" fill="#650000"/>
      </g>
      <g id="Group_52" data-name="Group 52" transform="translate(597.414 635.31)">
        <path id="Path_43" data-name="Path 43" d="M2266.626,844.273a1.883,1.883,0,0,1-.769-3.6c8.99-4.018,13.425-8.549,14.385-14.693.481-3.088-.224-7.909-2.479-10.761a5.445,5.445,0,0,0-3.917-2.23l-2.938-.229,1.444-2.57c3.367-5.99,5.1-15.2,4.627-24.644-1.269-25.337-22.33-46.037-50.113-49.286l-.061.007-.16-.029c-.809-.1-1.649-.176-2.574-.243l-.184-.021a1.882,1.882,0,0,1,.457-3.735l.028,0c.9.066,1.735.144,2.536.237h.012l.173.02a64.045,64.045,0,0,1,36.856,16.979,53.3,53.3,0,0,1,16.79,35.883c.458,9.2-.987,17.956-3.989,24.484a9.642,9.642,0,0,1,3.965,3.042c3.087,3.9,3.847,9.825,3.246,13.677-1.162,7.44-6.426,13.017-16.568,17.55A1.868,1.868,0,0,1,2266.626,844.273Z" transform="translate(-2222.293 -732.229)" fill="#650000"/>
      </g>
      <g id="Group_53" data-name="Group 53" transform="translate(541.392 664.44)">
        <path id="Path_44" data-name="Path 44" d="M1683.129,1088.683a4.339,4.339,0,0,0,.188.413c.825,1.691,4.294,8.136,8.72,11.728a13.042,13.042,0,0,0,2.548,1.653,8.5,8.5,0,0,0,1.054.431c.775.168,1.568.323,2.373.465.258.049.515.091.771.133,4.243.7,6.6,1.438,9.446,2a51.459,51.459,0,0,0,8.971.9c9.321.261,17.5.519,22.246.025a138.328,138.328,0,0,0,31.567-7.936,101.867,101.867,0,0,0,14.565-6.779s0,0,.006-.008a25.1,25.1,0,0,0,2.21-1.849,12.9,12.9,0,0,0,4.37-7.637v0a9.984,9.984,0,0,0-.492-4.483c-.035-.111.87-1.061.83-1.165-.028-.079-.056-.158-.087-.234a17.007,17.007,0,0,0-4.5-7.167,7.759,7.759,0,0,0-5.172-2.1,3.492,3.492,0,0,0-.611.05s9.285-23.559-4.669-41.62c-.114-.149-.228-.294-.344-.436-7.773-9.745-17-12.875-25.08-12.179-10.524.907-19.111,8.3-20.029,16.034a11.3,11.3,0,0,0-.024,2.51c-.873-8.4-11.4-15.17-22.764-14.094a.138.138,0,0,0-.052.005c-8.241.794-16.918,5.719-22.665,17.141-.085.163-.163.328-.244.5-9.941,20.545,4.261,41.663,4.261,41.663s-2.431.3-4.572,3.567a19.523,19.523,0,0,0-2.683,7.589c-.017.117-.038.237-.055.357C1683.181,1088.328,1683.153,1088.5,1683.129,1088.683Z" transform="translate(-1682.726 -1012.792)" fill="#ffca9f"/>
      </g>
      <g id="Group_54" data-name="Group 54" transform="translate(555.958 624.082)">
        <path id="Path_45" data-name="Path 45" d="M1825.208,648.739a1.883,1.883,0,0,1-1.862-1.626,31.232,31.232,0,0,1,1.029-13.92,3.089,3.089,0,0,1,4.555-1.655,29.236,29.236,0,0,1,2.907,2.166c.488.4,1.015.823,1.457,1.144a47.388,47.388,0,0,1,2.819-9.066,3.091,3.091,0,0,1,4.961-.78,31.2,31.2,0,0,0,12.949,7.573c10.124,2.854,15.019,2.986,15.067,2.987a1.882,1.882,0,0,1-.064,3.764c-.213,0-5.344-.116-16.025-3.128a35.4,35.4,0,0,1-13.9-7.872,54.013,54.013,0,0,0-2.312,8.2,3.091,3.091,0,0,1-4.268,2.23,15.1,15.1,0,0,1-3.055-2.131c-.591-.48-1.2-.972-1.778-1.391a28.148,28.148,0,0,0-.611,11.365,1.882,1.882,0,0,1-1.608,2.121A1.9,1.9,0,0,1,1825.208,648.739Z" transform="translate(-1823.012 -624.082)" fill="#650000"/>
      </g>
      <g id="Group_55" data-name="Group 55" transform="translate(597.299 726.832)">
        <path id="Path_46" data-name="Path 46" d="M2221.755,1617.038a.418.418,0,0,1-.574-.4c.035-.913.282-2.5,1.567-2.843a1.394,1.394,0,0,1,1.938,1.5c-.126.541-.532.914-1.377,1.185C2222.792,1616.636,2222.19,1616.862,2221.755,1617.038Z" transform="translate(-2221.181 -1613.705)" fill="#650000"/>
      </g>
      <g id="Group_56" data-name="Group 56" transform="translate(589.816 727.679)">
        <path id="Path_47" data-name="Path 47" d="M2152.422,1624.846a.417.417,0,0,0,.478-.514c-.221-.886-.79-2.39-2.118-2.46a1.394,1.394,0,0,0-1.589,1.862c.235.5.707.785,1.59.876C2151.326,1624.667,2151.961,1624.764,2152.422,1624.846Z" transform="translate(-2149.109 -1621.868)" fill="#650000"/>
      </g>
      <g id="Group_57" data-name="Group 57" transform="translate(590.196 733.318)">
        <path id="Path_48" data-name="Path 48" d="M2154.341,1681.47a9.1,9.1,0,0,0,3.145,1.063,5.439,5.439,0,0,0,2.875-.437,5.1,5.1,0,0,0,2.158-1.892,8.188,8.188,0,0,0,1.106-3.041l.013-.07a1.107,1.107,0,0,1,2.173-.033,7.31,7.31,0,0,1-.547,4.627,7.069,7.069,0,0,1-3.513,3.459,7.272,7.272,0,0,1-4.885.358,7.606,7.606,0,0,1-3.854-2.5,1.029,1.029,0,0,1,1.27-1.565Z" transform="translate(-2152.778 -1676.183)" fill="#650000"/>
      </g>
      <g id="Group_58" data-name="Group 58" transform="translate(539.969 662.64)">
        <path id="Path_49" data-name="Path 49" d="M1714.664,1093.369a128.769,128.769,0,0,1-17.979-1.257,76.415,76.415,0,0,1-13.35-2.888c-7.078-2.361-13.458-9.429-14.217-15.756-.8-6.656,3.506-11.011,7.018-13.074-3.279-5.717-11.967-23.741-3.275-41.7l.077-.16c.063-.129.125-.259.19-.385,8.029-15.953,21.641-19.672,31.7-17.829,6.508,1.194,11.917,4.587,14.9,9,2.011-4.927,6.607-9.361,12.731-11.867,9.465-3.874,23.549-3.03,34.7,10.949.115.14.245.309.37.474,12.191,15.779,7.4,35.2,5.362,41.471,3.86,1.3,8.965,4.674,9.554,11.352.563,6.344-4.228,14.574-10.678,18.345a82.548,82.548,0,0,1-12.958,5.688A131.482,131.482,0,0,1,1714.664,1093.369Zm-14.651-89.711c-6.228,0-16.566,2.359-23.533,16.2-.058.113-.1.206-.147.3l-.087.18c-9.358,19.341,4,39.583,4.133,39.785l1.321,1.964-2.211.845c-.3.117-7.481,3-6.633,10.089.517,4.306,5.438,10.554,11.676,12.635a72.756,72.756,0,0,0,12.678,2.729,127.211,127.211,0,0,0,60.327-6.206,78.944,78.944,0,0,0,12.339-5.4c5.667-3.313,9.2-10.438,8.815-14.757-.626-7.109-8.245-8.458-8.569-8.512l-2.317-.386.875-2.178c.09-.225,8.964-22.823-4.146-39.791-.107-.141-.2-.27-.305-.393-12.417-15.568-26.368-11.461-30.349-9.833-7.225,2.957-12.045,9.185-11.46,14.81a1.883,1.883,0,0,1-1.677,2.067c-.046,0-.09.007-.135.009s-.09.014-.135.019a1.882,1.882,0,0,1-2.066-1.677c-.585-5.625-6.582-10.729-14.26-12.136A23.158,23.158,0,0,0,1700.012,1003.658Z" transform="translate(-1669.022 -995.451)" fill="#650000"/>
      </g>
      <g id="Group_59" data-name="Group 59" transform="translate(535.502 723.338)" opacity="0.3">
        <path id="Path_50" data-name="Path 50" d="M1627.032,1599.886c2.521,6.659,8.573,10.187,16.839,12.222a8.653,8.653,0,0,0,1.054.431c.775.168,1.567.322,2.372.465.258.049.515.091.771.133,7.632,1.263,9.162,2.637,18.417,2.9,9.321.261,17.5.519,22.246.025,10.489-1.09,31.092-6.044,46.133-14.715,0,0,0,0,.006-.007a25.059,25.059,0,0,0,2.211-1.849,19.2,19.2,0,0,1-4.715,3.961c8.5-3.8,14.307-8.633,15.476-16.121a18.287,18.287,0,0,0-.5-7.269,37.09,37.09,0,0,1-5.388,5.687c-.084.075-.168.148-.256.22-7.312,6.282-21.345,14.556-47.095,19.156a83.954,83.954,0,0,1-12.183,1.267c-25.98.792-41.386-4.344-49.875-8.963-.028-.017-.056-.031-.08-.047a38.465,38.465,0,0,1-6.465-4.357A18.163,18.163,0,0,0,1627.032,1599.886Z" transform="translate(-1625.991 -1580.061)" fill="#650000"/>
      </g>
      <g id="Group_60" data-name="Group 60" transform="translate(563.046 701.175)">
        <path id="Path_51" data-name="Path 51" d="M1902.7,1370.355a7.087,7.087,0,0,0-5.519,3.1,13.4,13.4,0,0,0-1.979,9.772c.728,5.017,3.549,9.265,7.01,11.142a7.963,7.963,0,0,0,4.124,1.038c5.145-.19,8.5-5.951,7.5-12.867S1907.843,1370.165,1902.7,1370.355Z" transform="translate(-1894.634 -1369.961)" fill="#fff"/>
        <path id="Path_52" data-name="Path 52" d="M1902.715,1392.435a8.38,8.38,0,0,1-4.045-1.09c-3.658-1.986-6.489-6.472-7.208-11.427a13.806,13.806,0,0,1,2.05-10.058,7.5,7.5,0,0,1,5.817-3.254h0c5.317-.2,10.5,5.416,11.533,12.512.6,4.131-.281,7.971-2.417,10.535a7.33,7.33,0,0,1-5.451,2.777C1902.9,1392.433,1902.807,1392.435,1902.715,1392.435Zm-3.356-25.052a6.736,6.736,0,0,0-5.217,2.935,13.03,13.03,0,0,0-1.909,9.488c.685,4.721,3.358,8.983,6.81,10.855a7.521,7.521,0,0,0,3.923.991,6.571,6.571,0,0,0,4.882-2.5c1.966-2.358,2.8-6.068,2.245-9.924-.974-6.715-5.792-12.031-10.734-11.847Z" transform="translate(-1891.281 -1366.601)" fill="#11116d"/>
      </g>
      <g id="Group_62" data-name="Group 62" transform="translate(565.085 701.565)">
        <g id="Group_61" data-name="Group 61" transform="translate(0 0)">
          <path id="Path_53" data-name="Path 53" d="M1916.944,1370.355a7.085,7.085,0,0,0-5.518,3.1,10.971,10.971,0,0,0-.39,1.416c-.23,1.1-.176,2.624.692,3.26.747.546,1.561.04,2.359.009,1.314-.052,2.734,1.468,2.946,3.158s-.83,3.219-2.156,3.175c-.923-.032-2.027-.674-2.683.018a2.852,2.852,0,0,0-.269,2.363,13.562,13.562,0,0,0,4.332,7.349c.065.057.132.113.2.166a7.966,7.966,0,0,0,4.124,1.038c5.146-.19,8.5-5.951,7.5-12.867S1922.09,1370.165,1916.944,1370.355Z" transform="translate(-1910.92 -1370.35)" fill="#9acbd6"/>
        </g>
      </g>
      <g id="Group_63" data-name="Group 63" transform="translate(565.393 702.304)">
        <ellipse id="Ellipse_1" data-name="Ellipse 1" cx="7.537" cy="11.088" rx="7.537" ry="11.088" transform="translate(0 3.552) rotate(-13.631)" fill="#640005"/>
      </g>
      <g id="Group_65" data-name="Group 65" transform="translate(563.472 704.288)">
        <g id="Group_64" data-name="Group 64" transform="translate(0 0)">
          <path id="Path_54" data-name="Path 54" d="M1900.2,1401.263c-.8.031-1.613.538-2.36-.009-.868-.636-.922-2.161-.693-3.259a11.131,11.131,0,0,1,.391-1.416,13.4,13.4,0,0,0-1.979,9.772c.728,5.016,3.55,9.264,7.01,11.142-.066-.053-.134-.11-.2-.166a13.569,13.569,0,0,1-4.333-7.349,2.852,2.852,0,0,1,.27-2.363c.656-.692,1.759-.05,2.682-.018,1.326.043,2.367-1.488,2.156-3.175S1901.516,1401.211,1900.2,1401.263Z" transform="translate(-1895.383 -1396.579)" fill="#fff"/>
        </g>
      </g>
      <g id="Group_66" data-name="Group 66" transform="translate(560.938 699.066)">
        <path id="Path_55" data-name="Path 55" d="M1881.411,1348.787c5.051,0,9.887,5.384,10.872,12.184,1,6.916-2.352,12.678-7.5,12.867-.088,0-.174,0-.261,0a8.045,8.045,0,0,1-3.863-1.042c-3.46-1.877-6.281-6.125-7.009-11.142a13.4,13.4,0,0,1,1.979-9.772,7.083,7.083,0,0,1,5.518-3.095c.087,0,.173,0,.261,0m0-2.5c-.118,0-.235,0-.354.007a9.565,9.565,0,0,0-7.446,4.122,15.91,15.91,0,0,0-2.431,11.6c.824,5.678,4,10.651,8.29,12.979a10.466,10.466,0,0,0,5.055,1.345q.176,0,.352-.007a9.508,9.508,0,0,0,6.994-3.535c2.52-3.023,3.57-7.465,2.884-12.188-1.165-8.031-7.026-14.323-13.345-14.323Z" transform="translate(-1870.978 -1346.288)" fill="#640005"/>
      </g>
      <g id="Group_67" data-name="Group 67" transform="translate(604.485 695.783)">
        <path id="Path_56" data-name="Path 56" d="M2302,1318.55a7.086,7.086,0,0,1,6.113,1.63,13.4,13.4,0,0,1,4.341,8.976c.539,5.04-1.142,9.855-4.027,12.532a7.971,7.971,0,0,1-3.738,2.027c-5.031,1.092-9.712-3.657-10.454-10.606S2296.969,1319.643,2302,1318.55Z" transform="translate(-2293.748 -1318.008)" fill="#fff"/>
        <path id="Path_57" data-name="Path 57" d="M2299.888,1340.922a7.512,7.512,0,0,1-4.434-1.506c-2.707-1.954-4.511-5.454-4.953-9.606-.764-7.129,2.856-13.85,8.068-14.981h0a7.5,7.5,0,0,1,6.443,1.711,13.8,13.8,0,0,1,4.48,9.234c.533,4.98-1.1,10.028-4.149,12.859a8.3,8.3,0,0,1-3.919,2.122A7.242,7.242,0,0,1,2299.888,1340.922Zm-1.155-25.332c-4.835,1.05-8.182,7.393-7.458,14.138.413,3.874,2.145,7.26,4.634,9.058a6.572,6.572,0,0,0,5.35,1.209,7.532,7.532,0,0,0,3.554-1.932c2.88-2.671,4.413-7.462,3.906-12.206a13.03,13.03,0,0,0-4.2-8.717,6.645,6.645,0,0,0-5.784-1.55Z" transform="translate(-2290.399 -1314.667)" fill="#11116d"/>
      </g>
      <g id="Group_68" data-name="Group 68" transform="translate(604.873 696.17)">
        <path id="Path_58" data-name="Path 58" d="M2302,1318.55a7.086,7.086,0,0,1,6.113,1.63,10.832,10.832,0,0,1,.729,1.275c.5,1.007.822,2.5.138,3.33-.588.714-1.5.425-2.283.594-1.287.275-2.286,2.1-2.07,3.79s1.6,2.913,2.876,2.542c.887-.26,1.8-1.155,2.6-.647a2.851,2.851,0,0,1,.847,2.222,13.572,13.572,0,0,1-2.375,8.194c-.049.071-.1.142-.151.21a7.971,7.971,0,0,1-3.738,2.027c-5.031,1.092-9.712-3.657-10.454-10.606S2296.969,1319.643,2302,1318.55Z" transform="translate(-2294.136 -1318.395)" fill="#9acbd6"/>
      </g>
      <g id="Group_69" data-name="Group 69" transform="translate(604.267 699.061)">
        <ellipse id="Ellipse_2" data-name="Ellipse 2" cx="7.537" cy="11.088" rx="7.537" ry="11.088" transform="matrix(1, -0.013, 0.013, 1, 0, 0.192)" fill="#640005"/>
      </g>
      <g id="Group_71" data-name="Group 71" transform="translate(615.205 697.6)">
        <g id="Group_70" data-name="Group 70" transform="translate(0 0)">
          <path id="Path_59" data-name="Path 59" d="M2395.749,1337.361c.782-.168,1.7.121,2.283-.594.684-.832.358-2.322-.138-3.33a10.862,10.862,0,0,0-.729-1.274,13.393,13.393,0,0,1,4.341,8.976c.539,5.041-1.141,9.855-4.027,12.532.052-.068.1-.139.151-.21a13.572,13.572,0,0,0,2.375-8.193,2.855,2.855,0,0,0-.847-2.222c-.807-.508-1.717.388-2.6.647-1.273.371-2.662-.854-2.876-2.541S2394.462,1337.636,2395.749,1337.361Z" transform="translate(-2393.649 -1332.163)" fill="#fff"/>
        </g>
      </g>
      <g id="Group_72" data-name="Group 72" transform="translate(602.372 693.672)">
        <path id="Path_60" data-name="Path 60" d="M2281.854,1296.833a7.308,7.308,0,0,1,4.674,1.785,13.392,13.392,0,0,1,4.34,8.976c.54,5.04-1.141,9.856-4.026,12.533a7.967,7.967,0,0,1-3.738,2.027,6.77,6.77,0,0,1-1.442.156c-4.455,0-8.342-4.482-9.012-10.762-.744-6.949,2.733-13.468,7.764-14.559a6.784,6.784,0,0,1,1.439-.155m0-2.5h0a9.34,9.34,0,0,0-1.966.211c-6.342,1.376-10.611,8.961-9.722,17.268.8,7.529,5.639,12.994,11.5,12.994a9.3,9.3,0,0,0,1.972-.213,10.368,10.368,0,0,0,4.913-2.643c3.573-3.313,5.417-8.918,4.806-14.624a15.915,15.915,0,0,0-5.237-10.639,9.776,9.776,0,0,0-6.263-2.354Z" transform="translate(-2270.05 -1294.335)" fill="#640005"/>
      </g>
      <g id="Group_73" data-name="Group 73" transform="translate(546.306 828.289)">
        <path id="Path_61" data-name="Path 61" d="M1738.875,2596.423s8.653-6.914,12.27-5.3c3.984,1.78-2.411,7.863-2.411,7.962s10.89,1.75,10.961,6.25c.062,3.895-8.96,2.267-9.08,2.436-.072.1,5.318,6.17,2.172,7.628s-9.938-2.584-10.055-2.489c-.182.146,3.4,6.571-.4,8.662s-12.167-6.8-12.278-12.5C1729.943,2603.6,1738.875,2596.423,1738.875,2596.423Z" transform="translate(-1730.05 -2590.881)" fill="#ffca9f"/>
      </g>
      <g id="Group_74" data-name="Group 74" transform="translate(544.424 826.42)">
        <path id="Path_62" data-name="Path 62" d="M1724.791,2607.637a7.667,7.667,0,0,1-3.819-1.187c-4.2-2.43-8.952-8.561-9.049-13.474-.122-6.213,8.539-13.359,9.527-14.153l0,0c2.24-1.79,9.886-7.479,14.213-5.546a3.876,3.876,0,0,1,2.343,2.773c.387,1.911-.713,3.988-2.076,5.778,3.792,1,9.33,3.085,9.4,7.349a3.8,3.8,0,0,1-1.228,2.915c-1.361,1.267-3.583,1.624-5.953,1.624h-.079c.987,1.689,1.605,3.408,1.225,4.937a3.467,3.467,0,0,1-1.963,2.326c-2.147,1-5.038.338-7.807-.759.466,2.421.307,5.31-2.536,6.872A4.49,4.49,0,0,1,1724.791,2607.637Zm-.984-25.879c-3.175,2.559-8.185,7.845-8.12,11.145.06,3.078,3.678,8.271,7.168,10.289,1.228.71,2.018.767,2.321.6,1.108-.608,1.035-2.461-.226-5.661-.283-.719-.756-1.921.352-2.815.961-.774,1.882-.317,2.7.084,4.972,2.465,6.912,2.471,7.649,2.205-.023-.394-.326-1.556-2.461-4.376a2.135,2.135,0,0,1-.352-2.677c.644-.91,1.547-.829,2.5-.748,5.406.477,6.16-.389,6.231-.5a.672.672,0,0,0,0-.074c0-.247-.291-2.478-8.98-4.322-.542-.114-1.982-.421-1.982-1.957a2.109,2.109,0,0,1,.726-1.53c3.024-3.239,3.007-4.463,2.991-4.614-.013,0-.071-.045-.191-.1C1732.623,2576.037,1727.479,2578.828,1723.807,2581.758Z" transform="translate(-1711.921 -2572.878)" fill="#650000"/>
      </g>
      <g id="Group_76" data-name="Group 76" transform="translate(579.231 760.585)">
        <g id="Group_75" data-name="Group 75">
          <path id="Path_63" data-name="Path 63" d="M2067.017,1938.795s20.58,14.887,41.172,15.84l-.016,21.989s-38.9,12.353-61.007-9.779" transform="translate(-2047.166 -1938.795)" fill="#804959"/>
        </g>
      </g>
      <g id="Group_77" data-name="Group 77" transform="translate(579.233 776.124)" opacity="0.3">
        <path id="Path_64" data-name="Path 64" d="M2108.208,2088.765l-.018,21.99s-38.9,12.352-61-9.779l1.12-1.585c21.632,12.655,42.512,7.221,48.2,3.985s8.123-14.912,8.123-14.912C2105.823,2088.6,2107.014,2088.709,2108.208,2088.765Z" transform="translate(-2047.186 -2088.464)" fill="#650000"/>
      </g>
      <g id="Group_78" data-name="Group 78" transform="translate(577.348 758.702)">
        <path id="Path_65" data-name="Path 65" d="M2067.65,1965.695c-15.919,0-29.046-4.74-38.065-13.768a1.882,1.882,0,1,1,2.663-2.66c18.825,18.844,50.931,11.535,57.793,9.688l.014-18.8c-20.27-1.678-39.558-15.476-40.392-16.079a1.882,1.882,0,0,1,2.206-3.051c.2.145,20.382,14.57,40.157,15.484l1.8.083-.018,25.165-1.312.417a90.056,90.056,0,0,1-22.733,3.5C2069.052,1965.686,2068.346,1965.695,2067.65,1965.695Z" transform="translate(-2029.034 -1920.665)" fill="#650000"/>
      </g>
      <g id="Group_79" data-name="Group 79" transform="translate(632.953 769.503)">
        <path id="Path_66" data-name="Path 66" d="M2567.684,2034.823s4.751-10.006,8.711-10.137c4.362-.145,1.276,8.126,1.319,8.213s10.556-3.2,12.591.819c1.761,3.474-7.062,5.962-7.1,6.167-.021.123,7.482,3.218,5.293,5.907s-10.066,2.028-10.13,2.165c-.1.211,5.937,4.418,3.432,7.964s-13.918-.788-16.513-5.861C2562.8,2045.19,2567.684,2034.823,2567.684,2034.823Z" transform="translate(-2564.583 -2024.684)" fill="#ffca9f"/>
      </g>
      <g id="Group_80" data-name="Group 80" transform="translate(631.079 767.62)">
        <path id="Path_67" data-name="Path 67" d="M2562.289,2042.849c-.259,0-.53-.01-.812-.03-4.842-.344-11.8-3.776-14.034-8.15-2.831-5.531,1.824-15.748,2.365-16.9l0-.005c1.23-2.59,5.612-11.054,10.35-11.21a3.872,3.872,0,0,1,3.319,1.466c1.186,1.548,1.106,3.9.666,6.1,3.85-.762,9.738-1.312,11.667,2.49a3.8,3.8,0,0,1,.173,3.159c-.677,1.753-2.551,3.057-4.712,4.1,1.626,1.086,2.937,2.361,3.263,3.9a3.471,3.471,0,0,1-.747,2.952c-1.494,1.834-4.38,2.51-7.351,2.737,1.48,1.972,2.6,4.639.731,7.289C2566.477,2041.738,2565.076,2042.849,2562.289,2042.849Zm-9.077-23.47c-1.733,3.69-3.922,10.637-2.419,13.575,1.4,2.741,6.929,5.824,10.95,6.11,1.417.1,2.149-.194,2.351-.478.729-1.033-.148-2.666-2.684-4.991-.569-.521-1.52-1.394-.917-2.684.526-1.118,1.562-1.114,2.461-1.105,5.551.052,7.3-.806,7.843-1.369-.193-.342-.975-1.255-4.13-2.855a2.135,2.135,0,0,1-1.488-2.251c.18-1.1,1.025-1.424,1.919-1.767,5.069-1.942,5.368-3.047,5.385-3.175,0,0-.007-.023-.029-.067-.112-.221-1.345-2.1-9.967.046a2.084,2.084,0,0,1-2.636-.886,2.11,2.11,0,0,1-.02-1.7c1.3-4.237.749-5.329.667-5.458-.013,0-.065-.005-.162-.005h-.052C2558.631,2010.375,2555.231,2015.137,2553.212,2019.379Z" transform="translate(-2546.536 -2006.555)" fill="#650000"/>
      </g>
    </g>
  </g>
</svg>
